<svg width="243" height="104" viewBox="0 0 243 104" fill="none" xmlns="http://www.w3.org/2000/svg">
<path d="M0.501412 103.5C0.502399 103.325 0.503905 103.15 0.505928 102.976L0.00596144 102.97C0.0139126 102.283 0.0298136 101.596 0.0536416 100.91L0.55334 100.927C0.577048 100.245 0.608648 99.5623 0.648117 98.8806L0.148954 98.8517C0.188661 98.166 0.236289 97.4808 0.291813 96.7963L0.790176 96.8367C0.845395 96.156 0.908469 95.4759 0.979375 94.7966L0.482077 94.7447C0.553375 94.0616 0.632547 93.3794 0.71957 92.698L1.21554 92.7614C1.30205 92.084 1.39635 91.4076 1.49844 90.7321L1.00405 90.6574C1.10666 89.9785 1.21707 89.3006 1.33528 88.6237L1.82783 88.7098C1.94528 88.0373 2.07046 87.3658 2.20336 86.6955L1.71291 86.5983C1.84642 85.925 1.98766 85.2528 2.13662 84.5819L2.62473 84.6903C2.77269 84.0239 2.9283 83.3588 3.09155 82.6951L2.60602 82.5756C2.76991 81.9093 2.94146 81.2442 3.12063 80.5807L3.60334 80.711C3.78125 80.0521 3.96673 79.3946 4.15974 78.7387L3.68008 78.5976C3.87377 77.9394 4.07501 77.2827 4.28377 76.6277L4.76016 76.7795C4.96737 76.1294 5.18204 75.4809 5.40415 74.8341L4.93125 74.6717C5.15406 74.0228 5.38432 73.3757 5.62199 72.7304L6.09118 72.9032C6.32695 72.263 6.57008 71.6246 6.82052 70.9881L6.35525 70.805C6.6064 70.1667 6.86488 69.5303 7.13066 68.8959L7.59183 69.0891C7.85539 68.4599 8.12617 67.8328 8.40416 67.2076L7.94729 67.0044C8.22593 66.3778 8.51176 65.7533 8.80476 65.1309L9.25714 65.3438C9.40255 65.0349 9.54974 64.7265 9.6987 64.4187C9.84015 64.1264 9.98314 63.8347 10.1276 63.5437L9.67981 63.3213C9.97006 62.7368 10.2664 62.1547 10.5689 61.5753L11.0121 61.8066C11.3126 61.2311 11.619 60.6581 11.9315 60.0877L11.493 59.8475C11.8065 59.2752 12.126 58.7055 12.4514 58.1385L12.8851 58.3874C13.2083 57.8244 13.5373 57.264 13.8722 56.7064L13.4436 56.449C13.7796 55.8896 14.1214 55.333 14.469 54.7792L14.8925 55.045C15.2376 54.4952 15.5884 53.9482 15.9449 53.404L15.5267 53.13C15.8843 52.5842 16.2475 52.0413 16.6164 51.5014L17.0292 51.7834C17.3954 51.2474 17.7671 50.7144 18.1444 50.1842L17.7371 49.8943C18.1154 49.3628 18.4992 48.8342 18.8885 48.3086L19.2903 48.6063C19.6766 48.0847 20.0684 47.5661 20.4656 47.0506L20.0695 46.7455C20.4676 46.2287 20.8711 45.715 21.28 45.2044L21.6703 45.5169C22.0759 45.0103 22.4869 44.5067 22.9031 44.0063L22.5186 43.6865C22.9357 43.1851 23.358 42.6867 23.7855 42.1916L24.164 42.5183C24.5881 42.027 25.0174 41.5388 25.4518 41.0539L25.0793 40.7203C25.5145 40.2345 25.9547 39.752 26.3999 39.2727L26.7662 39.613C27.208 39.1374 27.6548 38.6651 28.1065 38.196L27.7463 37.8492C28.1986 37.3795 28.6559 36.9131 29.1179 36.4501L29.4719 36.8033C29.9305 36.3438 30.3939 35.8876 30.8621 35.4347L30.5145 35.0753C30.9831 34.6221 31.4565 34.1722 31.9346 33.7257L32.2758 34.0912C32.7503 33.6481 33.2295 33.2084 33.7133 32.7721L33.3784 32.4008C33.8626 31.9642 34.3514 31.5311 34.8447 31.1014L35.1731 31.4784C35.4181 31.265 35.6643 31.0524 35.9117 30.8407C36.1731 30.6169 36.4358 30.3942 36.6996 30.1725L36.3779 29.7897C36.907 29.345 37.4407 28.9046 37.9788 28.4687L38.2936 28.8571C38.8283 28.4239 39.3674 27.995 39.9109 27.5705L39.6032 27.1765C40.1479 26.751 40.6969 26.33 41.2502 25.9133L41.551 26.3128C42.1008 25.8988 42.6548 25.4892 43.2129 25.0841L42.9192 24.6795C43.4785 24.2735 44.042 23.8719 44.6096 23.4748L44.8962 23.8845C45.4601 23.49 46.0281 23.0999 46.6 22.7144L46.3205 22.2998C46.8936 21.9134 47.4706 21.5315 48.0515 21.1542L48.3239 21.5735C48.901 21.1986 49.482 20.8282 50.0668 20.4623L49.8016 20.0385C50.3875 19.6719 50.9772 19.3098 51.5706 18.9523L51.8286 19.3806C52.4181 19.0255 53.0113 18.6749 53.608 18.3288L53.3572 17.8963C53.9551 17.5496 54.5566 17.2075 55.1616 16.87L55.4052 17.3066C56.0062 16.9714 56.6108 16.6406 57.2187 16.3145L56.9824 15.8739C57.5914 15.5472 58.2038 15.2252 58.8196 14.9078L59.0487 15.3522C59.6605 15.0368 60.2756 14.7261 60.894 14.4199L60.6722 13.9718C61.2915 13.6653 61.914 13.3633 62.5397 13.0661L62.7543 13.5177C63.3761 13.2223 64.001 12.9316 64.629 12.6455L64.4217 12.1905C65.0506 11.9041 65.6824 11.6223 66.3173 11.3453L66.5173 11.8035C67.1483 11.5282 67.7823 11.2575 68.4192 10.9915L68.2265 10.5302C68.8641 10.2639 69.5045 10.0024 70.1479 9.74559L70.3332 10.21C70.9726 9.95473 71.6148 9.7042 72.2598 9.4584L72.0817 8.99118C72.7274 8.74512 73.3758 8.50379 74.0269 8.26723L74.1976 8.73718C74.5214 8.61953 74.8459 8.50306 75.171 8.38779C75.48 8.27825 75.7894 8.16983 76.0993 8.06253L75.9357 7.59005C76.5574 7.37475 77.1811 7.16393 77.8064 6.95762L77.9631 7.43245C78.5856 7.2271 79.2098 7.02622 79.8358 6.82983L79.6861 6.35276C80.3139 6.15579 80.9434 5.96332 81.5745 5.77536L81.7172 6.25457C82.3455 6.06745 82.9755 5.88482 83.6069 5.70669L83.4712 5.22547C84.1044 5.04685 84.7392 4.87273 85.3755 4.70313L85.5042 5.18626C86.1377 5.01742 86.7726 4.85306 87.409 4.69321L87.2872 4.20828C87.9253 4.04798 88.5649 3.89219 89.2058 3.74093L89.3207 4.22757C89.9587 4.07699 90.5981 3.93092 91.2387 3.78936L91.1309 3.30114C91.7733 3.15917 92.4171 3.02173 93.0621 2.88882L93.163 3.37853C93.8051 3.24621 94.4484 3.1184 95.0929 2.99511L94.999 2.50401C95.6452 2.38039 96.2925 2.26129 96.941 2.14673L97.028 2.63911C97.6736 2.52505 98.3203 2.41551 98.968 2.31049L98.888 1.81694C99.5375 1.71163 100.188 1.61086 100.839 1.51464L100.913 2.00927C101.561 1.91347 102.211 1.8222 102.861 1.73546L102.795 1.23985C103.447 1.15287 104.1 1.07043 104.754 0.992537L104.813 1.48903C105.464 1.41148 106.116 1.33846 106.769 1.26998L106.717 0.772712C107.371 0.704051 108.026 0.639939 108.682 0.580386L108.727 1.07834C109.38 1.01904 110.034 0.96428 110.688 0.914067L110.65 0.415533C111.306 0.365181 111.962 0.319386 112.62 0.278157L112.651 0.777176C113.305 0.73613 113.96 0.699626 114.615 0.667675L114.591 0.168268C115.248 0.136229 115.906 0.108753 116.564 0.0858501L116.581 0.585548C117.237 0.562743 117.892 0.544489 118.549 0.530796L118.538 0.0309045C119.196 0.0171752 119.854 0.00801492 120.513 0.00343447L120.516 0.503422C120.844 0.501141 121.172 0.5 121.5 0.5C121.828 0.5 122.156 0.501141 122.484 0.503422L122.487 0.00343441C123.146 0.00801483 123.804 0.0171751 124.462 0.0309043L124.451 0.530795C125.107 0.544488 125.763 0.562743 126.418 0.585547L126.436 0.08585C127.094 0.108753 127.752 0.136229 128.409 0.168268L128.385 0.667675C129.04 0.699625 129.695 0.736129 130.349 0.777176L130.38 0.278157C131.038 0.319386 131.694 0.365181 132.35 0.415533L132.312 0.914066C132.966 0.96428 133.62 1.01904 134.273 1.07834L134.318 0.580385C134.974 0.639938 135.629 0.704051 136.283 0.772711L136.231 1.26998C136.884 1.33846 137.536 1.41148 138.187 1.48903L138.246 0.992537C138.9 1.07042 139.553 1.15287 140.205 1.23985L140.139 1.73546C140.789 1.8222 141.439 1.91347 142.087 2.00927L142.161 1.51463C142.812 1.61086 143.462 1.71163 144.112 1.81694L144.032 2.31049C144.68 2.41551 145.326 2.52505 145.972 2.63911L146.059 2.14673C146.707 2.26129 147.355 2.38039 148.001 2.50401L147.907 2.9951C148.552 3.1184 149.195 3.24621 149.837 3.37853L149.938 2.88882C150.583 3.02173 151.227 3.15917 151.869 3.30113L151.761 3.78935C152.402 3.93092 153.041 4.07699 153.679 4.22756L153.794 3.74093C154.435 3.89219 155.075 4.04798 155.713 4.20827L155.591 4.69321C156.227 4.85306 156.862 5.01741 157.496 5.18626L157.624 4.70313C158.261 4.87273 158.896 5.04684 159.529 5.22546L159.393 5.70669C160.025 5.88482 160.654 6.06745 161.283 6.25456L161.425 5.77536C162.057 5.96332 162.686 6.15579 163.314 6.35275L163.164 6.82982C163.79 7.02621 164.414 7.22709 165.037 7.43245L165.194 6.95762C165.819 7.16393 166.443 7.37474 167.064 7.59004L166.901 8.06252C167.211 8.16982 167.52 8.27824 167.829 8.38778C168.154 8.50306 168.479 8.61952 168.802 8.73717L168.973 8.26723C169.624 8.50379 170.273 8.74512 170.918 8.99118L170.74 9.4584C171.385 9.70419 172.027 9.95473 172.667 10.21L172.852 9.74558C173.495 10.0024 174.136 10.2639 174.773 10.5302L174.581 10.9915C175.218 11.2575 175.852 11.5282 176.483 11.8035L176.683 11.3453C177.318 11.6223 177.949 11.9041 178.578 12.1905L178.371 12.6455C178.999 12.9316 179.624 13.2223 180.246 13.5177L180.46 13.0661C181.086 13.3633 181.709 13.6653 182.328 13.9718L182.106 14.4199C182.724 14.7261 183.339 15.0368 183.951 15.3522L184.18 14.9078C184.796 15.2252 185.409 15.5472 186.018 15.8739L185.781 16.3145C186.389 16.6406 186.994 16.9714 187.595 17.3066L187.838 16.87C188.443 17.2075 189.045 17.5496 189.643 17.8963L189.392 18.3288C189.989 18.6749 190.582 19.0255 191.171 19.3806L191.429 18.9523C192.023 19.3098 192.612 19.6719 193.198 20.0385L192.933 20.4623C193.518 20.8282 194.099 21.1986 194.676 21.5735L194.948 21.1542C195.529 21.5315 196.106 21.9134 196.679 22.2998L196.4 22.7143C196.972 23.0999 197.54 23.49 198.104 23.8845L198.39 23.4748C198.958 23.8719 199.521 24.2734 200.081 24.6794L199.787 25.0841C200.345 25.4892 200.899 25.8988 201.449 26.3128L201.75 25.9133C202.303 26.33 202.852 26.751 203.397 27.1765L203.089 27.5705C203.633 27.995 204.172 28.4239 204.706 28.8571L205.021 28.4686C205.559 28.9046 206.093 29.345 206.622 29.7897L206.3 30.1725C206.564 30.3941 206.827 30.6169 207.088 30.8407C207.336 31.0524 207.582 31.265 207.827 31.4784L208.155 31.1014C208.649 31.5311 209.137 31.9642 209.622 32.4008L209.287 32.7721C209.771 33.2084 210.25 33.6481 210.724 34.0912L211.065 33.7257C211.544 34.1722 212.017 34.6221 212.486 35.0753L212.138 35.4347C212.606 35.8875 213.07 36.3438 213.528 36.8033L213.882 36.4501C214.344 36.9131 214.801 37.3795 215.254 37.8492L214.893 38.196C215.345 38.6651 215.792 39.1374 216.234 39.613L216.6 39.2727C217.045 39.752 217.486 40.2345 217.921 40.7203L217.548 41.0539C217.983 41.5388 218.412 42.027 218.836 42.5183L219.215 42.1916C219.642 42.6867 220.064 43.1851 220.481 43.6865L220.097 44.0063C220.513 44.5067 220.924 45.0103 221.33 45.5169L221.72 45.2044C222.129 45.715 222.532 46.2287 222.931 46.7455L222.534 47.0506C222.932 47.5661 223.323 48.0847 223.71 48.6063L224.111 48.3086C224.501 48.8342 224.885 49.3628 225.263 49.8943L224.856 50.1842C225.233 50.7144 225.605 51.2474 225.971 51.7834L226.384 51.5014C226.752 52.0413 227.116 52.5842 227.473 53.1299L227.055 53.404C227.412 53.9482 227.762 54.4952 228.108 55.045L228.531 54.7792C228.879 55.333 229.22 55.8896 229.556 56.449L229.128 56.7064C229.463 57.264 229.792 57.8244 230.115 58.3874L230.549 58.1385C230.874 58.7055 231.194 59.2752 231.507 59.8475L231.069 60.0877C231.381 60.6581 231.687 61.2311 231.988 61.8066L232.431 61.5753C232.734 62.1547 233.03 62.7368 233.32 63.3213L232.872 63.5437C233.017 63.8347 233.16 64.1264 233.301 64.4187C233.45 64.7265 233.597 65.0349 233.743 65.3438L234.195 65.1309C234.488 65.7533 234.774 66.3778 235.053 67.0044L234.596 67.2076C234.874 67.8327 235.145 68.4599 235.408 69.0891L235.869 68.8959C236.135 69.5303 236.394 70.1667 236.645 70.805L236.179 70.9881C236.43 71.6246 236.673 72.263 236.909 72.9032L237.378 72.7304C237.616 73.3757 237.846 74.0228 238.069 74.6717L237.596 74.834C237.818 75.4809 238.033 76.1294 238.24 76.7795L238.716 76.6277C238.925 77.2827 239.126 77.9393 239.32 78.5975L238.84 78.7387C239.033 79.3946 239.219 80.0521 239.397 80.711L239.879 80.5807C240.059 81.2442 240.23 81.9092 240.394 82.5756L239.908 82.695C240.072 83.3588 240.227 84.0239 240.375 84.6903L240.863 84.5819C241.012 85.2528 241.154 85.925 241.287 86.5983L240.797 86.6955C240.93 87.3658 241.055 88.0372 241.172 88.7097L241.665 88.6237C241.783 89.3006 241.893 89.9785 241.996 90.6574L241.502 90.7321C241.604 91.4076 241.698 92.084 241.784 92.7614L242.28 92.698C242.367 93.3794 242.447 94.0616 242.518 94.7447L242.021 94.7966C242.092 95.4759 242.155 96.1559 242.21 96.8367L242.708 96.7963C242.764 97.4808 242.811 98.1659 242.851 98.8517L242.352 98.8806C242.391 99.5623 242.423 100.245 242.447 100.927L242.946 100.91C242.97 101.596 242.986 102.283 242.994 102.97L242.494 102.976C242.496 103.15 242.498 103.325 242.499 103.5H242.013V104H240.039V103.5H238.066V104H236.092V103.5H234.118V104H232.144V103.5H230.17V104H228.197V103.5H226.223V104H224.249V103.5H222.275V104H220.301V103.5H218.328V104H216.354V103.5H214.38V104H212.406V103.5H210.432V104H208.459V103.5H206.485V104H204.511V103.5H202.537V104H200.564V103.5H198.59V104H196.616V103.5H194.642V104H192.668V103.5H190.695V104H188.721V103.5H186.747V104H184.773V103.5H182.799V104H180.826V103.5H178.852V104H176.878V103.5H174.904V104H172.93V103.5H170.957V104H168.983V103.5H167.996H167.027V104H165.09V103.5H163.153V104H161.215V103.5H159.278V104H157.341V103.5H155.403V104H153.466V103.5H151.529V104H149.591V103.5H147.654V104H145.717V103.5H143.779V104H141.842V103.5H139.905V104H137.967V103.5H136.03V104H134.093V103.5H132.155V104H130.218V103.5H128.281V104H126.343V103.5H124.406V104H122.469V103.5H121.5H120.487V104H118.462V103.5H116.437V104H114.412V103.5H112.387V104H110.362V103.5H108.337V104H106.312V103.5H104.287V104H102.262V103.5H100.237V104H98.2125V103.5H96.1875V104H94.1625V103.5H92.1375V104H90.1125V103.5H88.0875V104H86.0625V103.5H84.0375V104H82.0125V103.5H79.9875V104H77.9625V103.5H75.9375V104H73.9125V103.5H71.8875V104H69.8625V103.5H67.8375V104H65.8125V103.5H63.7875V104H61.7625V103.5L59.7375 103.5V104H57.7125V103.5H55.6875V104H53.6625V103.5H51.6375V104H49.6125V103.5H47.5875V104H45.5625V103.5H43.5375V104H41.5125V103.5H39.4875V104H37.4625V103.5H35.4375V104H33.4125V103.5H31.3875V104H29.3625V103.5H27.3375V104H25.3125V103.5H23.2875V104H21.2624V103.5H19.2375V104H17.2124V103.5H15.1874V104H13.1624V103.5H11.1374V104H9.11244V103.5H7.08744V104H5.06244V103.5H3.03744V104H1.01243V103.5H0.501412Z" stroke="white" stroke-dasharray="2 2"/>
</svg>
