<svg width="450" height="124" viewBox="0 0 450 124" fill="none" xmlns="http://www.w3.org/2000/svg">
<g id="Sun-Moon-Graph" clip-path="url(#clip0_0_3)">
<g id="Background" filter="url(#filter0_b_0_3)">
<path d="M239 120C239 100.639 230.413 82.0714 215.129 68.3812C199.845 54.6911 179.115 47 157.5 47C135.885 47 115.155 54.691 99.8708 68.3812C84.5866 82.0714 76 100.639 76 120C107.828 120 125.672 120 157.5 120H198.25H218.625H239Z" fill="#BFDA1B" fill-opacity="0.2"/>
</g>
<path id="Half-circle" d="M239 119C239 99.9044 230.413 81.5909 215.129 68.0883C199.845 54.5857 179.115 47 157.5 47C135.885 47 115.155 54.5857 99.8708 68.0883C84.5866 81.5909 76 99.9044 76 119" stroke="white" stroke-width="0.55" stroke-dasharray="2 2"/>
<circle id="Moon" cx="358" cy="18" r="17.5" stroke="white"/>
<path id="Sun" d="M157 52.25C155.608 52.25 154.272 51.6969 153.288 50.7123C152.303 49.7277 151.75 48.3924 151.75 47C151.75 45.6076 152.303 44.2723 153.288 43.2877C154.272 42.3031 155.608 41.75 157 41.75C158.392 41.75 159.728 42.3031 160.712 43.2877C161.697 44.2723 162.25 45.6076 162.25 47C162.25 48.3924 161.697 49.7277 160.712 50.7123C159.728 51.6969 158.392 52.25 157 52.25ZM157 54C158.857 54 160.637 53.2625 161.95 51.9497C163.263 50.637 164 48.8565 164 47C164 45.1435 163.263 43.363 161.95 42.0503C160.637 40.7375 158.857 40 157 40C155.143 40 153.363 40.7375 152.05 42.0503C150.737 43.363 150 45.1435 150 47C150 48.8565 150.737 50.637 152.05 51.9497C153.363 53.2625 155.143 54 157 54ZM157 33C157.232 33 157.455 33.0922 157.619 33.2563C157.783 33.4204 157.875 33.6429 157.875 33.875V37.375C157.875 37.6071 157.783 37.8296 157.619 37.9937C157.455 38.1578 157.232 38.25 157 38.25C156.768 38.25 156.545 38.1578 156.381 37.9937C156.217 37.8296 156.125 37.6071 156.125 37.375V33.875C156.125 33.6429 156.217 33.4204 156.381 33.2563C156.545 33.0922 156.768 33 157 33ZM157 55.75C157.232 55.75 157.455 55.8422 157.619 56.0063C157.783 56.1704 157.875 56.3929 157.875 56.625V60.125C157.875 60.3571 157.783 60.5796 157.619 60.7437C157.455 60.9078 157.232 61 157 61C156.768 61 156.545 60.9078 156.381 60.7437C156.217 60.5796 156.125 60.3571 156.125 60.125V56.625C156.125 56.3929 156.217 56.1704 156.381 56.0063C156.545 55.8422 156.768 55.75 157 55.75ZM171 47C171 47.2321 170.908 47.4546 170.744 47.6187C170.58 47.7828 170.357 47.875 170.125 47.875H166.625C166.393 47.875 166.17 47.7828 166.006 47.6187C165.842 47.4546 165.75 47.2321 165.75 47C165.75 46.7679 165.842 46.5454 166.006 46.3813C166.17 46.2172 166.393 46.125 166.625 46.125H170.125C170.357 46.125 170.58 46.2172 170.744 46.3813C170.908 46.5454 171 46.7679 171 47ZM148.25 47C148.25 47.2321 148.158 47.4546 147.994 47.6187C147.83 47.7828 147.607 47.875 147.375 47.875H143.875C143.643 47.875 143.42 47.7828 143.256 47.6187C143.092 47.4546 143 47.2321 143 47C143 46.7679 143.092 46.5454 143.256 46.3813C143.42 46.2172 143.643 46.125 143.875 46.125H147.375C147.607 46.125 147.83 46.2172 147.994 46.3813C148.158 46.5454 148.25 46.7679 148.25 47ZM166.9 37.1002C167.064 37.2643 167.156 37.4869 167.156 37.7189C167.156 37.9509 167.064 38.1734 166.9 38.3375L164.425 40.8138C164.344 40.895 164.247 40.9594 164.141 41.0033C164.035 41.0473 163.921 41.0698 163.806 41.0697C163.574 41.0696 163.351 40.9772 163.187 40.8129C163.106 40.7315 163.041 40.635 162.998 40.5287C162.954 40.4225 162.931 40.3086 162.931 40.1936C162.931 39.9614 163.024 39.7388 163.188 39.5748L165.662 37.1002C165.827 36.9362 166.049 36.8441 166.281 36.8441C166.513 36.8441 166.736 36.9362 166.9 37.1002ZM150.812 53.188C150.976 53.3521 151.068 53.5746 151.068 53.8066C151.068 54.0386 150.976 54.2612 150.812 54.4252L148.337 56.8998C148.172 57.0591 147.951 57.1473 147.722 57.1453C147.493 57.1433 147.273 57.0513 147.111 56.8891C146.949 56.7269 146.857 56.5074 146.855 56.278C146.853 56.0486 146.941 55.8275 147.1 55.6625L149.575 53.188C149.739 53.024 149.961 52.9318 150.193 52.9318C150.425 52.9318 150.648 53.024 150.812 53.188ZM166.9 56.8998C166.736 57.0638 166.513 57.1559 166.281 57.1559C166.049 57.1559 165.827 57.0638 165.662 56.8998L163.188 54.4252C163.029 54.2602 162.94 54.0392 162.942 53.8098C162.944 53.5804 163.036 53.3609 163.199 53.1987C163.361 53.0364 163.58 52.9444 163.81 52.9424C164.039 52.9404 164.26 53.0286 164.425 53.188L166.9 55.6625C167.064 55.8266 167.156 56.0491 167.156 56.2811C167.156 56.5131 167.064 56.7357 166.9 56.8998ZM150.812 40.8138C150.648 40.9778 150.425 41.0699 150.193 41.0699C149.961 41.0699 149.739 40.9778 149.575 40.8138L147.1 38.3375C147.017 38.2568 146.95 38.1602 146.904 38.0535C146.858 37.9467 146.834 37.8319 146.833 37.7157C146.832 37.5995 146.854 37.4843 146.898 37.3768C146.942 37.2693 147.007 37.1716 147.089 37.0894C147.172 37.0072 147.269 36.9423 147.377 36.8983C147.484 36.8543 147.6 36.8321 147.716 36.8332C147.832 36.8342 147.947 36.8583 148.053 36.9042C148.16 36.95 148.257 37.0167 148.337 37.1002L150.812 39.5748C150.893 39.656 150.958 39.7526 151.002 39.8589C151.046 39.9652 151.069 40.0792 151.069 40.1943C151.069 40.3093 151.046 40.4233 151.002 40.5296C150.958 40.6359 150.893 40.7325 150.812 40.8138Z" fill="#FFD233"/>
<path id="Line" d="M-1.15286e-05 119.855L450.001 119.905" stroke="white" stroke-width="0.75"/>
<circle id="Points" r="4" transform="matrix(-1 0.000103026 0.000103026 1 239 120)" fill="#FFD233"/>
<circle id="Points_2" r="4" transform="matrix(-1 0.000103026 0.000103026 1 76.0004 120)" fill="#FFD233"/>
<path id="Text-moon" d="M390.52 18.2727V27H389.498L384.742 20.1477H384.657V27H383.6V18.2727H384.623L389.395 25.142H389.48V18.2727H390.52ZM395.243 27.1364C394.612 27.1364 394.068 26.9972 393.611 26.7188C393.156 26.4375 392.805 26.0455 392.558 25.5426C392.314 25.0369 392.192 24.4489 392.192 23.7784C392.192 23.108 392.314 22.517 392.558 22.0057C392.805 21.4915 393.149 21.0909 393.589 20.804C394.033 20.5142 394.55 20.3693 395.141 20.3693C395.482 20.3693 395.818 20.4261 396.151 20.5398C396.483 20.6534 396.786 20.8381 397.058 21.0938C397.331 21.3466 397.548 21.6818 397.71 22.0994C397.872 22.517 397.953 23.0312 397.953 23.642V24.0682H392.908V23.1989H396.93C396.93 22.8295 396.857 22.5 396.709 22.2102C396.564 21.9205 396.357 21.6918 396.087 21.5241C395.82 21.3565 395.504 21.2727 395.141 21.2727C394.74 21.2727 394.393 21.3722 394.101 21.571C393.811 21.767 393.588 22.0227 393.432 22.3381C393.276 22.6534 393.197 22.9915 393.197 23.3523V23.9318C393.197 24.4261 393.283 24.8452 393.453 25.1889C393.626 25.5298 393.866 25.7898 394.173 25.9688C394.48 26.1449 394.837 26.233 395.243 26.233C395.507 26.233 395.746 26.196 395.959 26.1222C396.175 26.0455 396.361 25.9318 396.517 25.7812C396.673 25.6278 396.794 25.4375 396.879 25.2102L397.851 25.483C397.749 25.8125 397.577 26.1023 397.335 26.3523C397.094 26.5994 396.795 26.7926 396.44 26.9318C396.085 27.0682 395.686 27.1364 395.243 27.1364ZM400.966 27L398.972 20.4545H400.028L401.443 25.4659H401.511L402.909 20.4545H403.983L405.364 25.4489H405.432L406.847 20.4545H407.903L405.909 27H404.92L403.489 21.9716H403.386L401.955 27H400.966ZM412.608 27V20.4545H413.58V21.4773H413.665C413.801 21.1278 414.021 20.8565 414.325 20.6634C414.629 20.4673 414.994 20.3693 415.42 20.3693C415.852 20.3693 416.212 20.4673 416.499 20.6634C416.788 20.8565 417.014 21.1278 417.176 21.4773H417.244C417.412 21.1392 417.663 20.8707 417.999 20.6719C418.334 20.4702 418.736 20.3693 419.205 20.3693C419.79 20.3693 420.268 20.5526 420.641 20.919C421.013 21.2827 421.199 21.8494 421.199 22.6193V27H420.193V22.6193C420.193 22.1364 420.061 21.7912 419.797 21.5838C419.533 21.3764 419.222 21.2727 418.864 21.2727C418.403 21.2727 418.047 21.4119 417.794 21.6903C417.541 21.9659 417.415 22.3153 417.415 22.7386V27H416.392V22.517C416.392 22.1449 416.271 21.8452 416.03 21.6179C415.788 21.3878 415.477 21.2727 415.097 21.2727C414.835 21.2727 414.591 21.3423 414.364 21.4815C414.139 21.6207 413.957 21.8139 413.818 22.0611C413.682 22.3054 413.614 22.5881 413.614 22.9091V27H412.608ZM425.697 27.1364C425.106 27.1364 424.587 26.9957 424.141 26.7145C423.698 26.4332 423.352 26.0398 423.102 25.5341C422.854 25.0284 422.731 24.4375 422.731 23.7614C422.731 23.0795 422.854 22.4844 423.102 21.9759C423.352 21.4673 423.698 21.0724 424.141 20.7912C424.587 20.5099 425.106 20.3693 425.697 20.3693C426.288 20.3693 426.805 20.5099 427.248 20.7912C427.694 21.0724 428.04 21.4673 428.288 21.9759C428.538 22.4844 428.663 23.0795 428.663 23.7614C428.663 24.4375 428.538 25.0284 428.288 25.5341C428.04 26.0398 427.694 26.4332 427.248 26.7145C426.805 26.9957 426.288 27.1364 425.697 27.1364ZM425.697 26.233C426.146 26.233 426.515 26.1179 426.805 25.8878C427.094 25.6577 427.309 25.3551 427.448 24.9801C427.587 24.6051 427.657 24.1989 427.657 23.7614C427.657 23.3239 427.587 22.9162 427.448 22.5384C427.309 22.1605 427.094 21.8551 426.805 21.6222C426.515 21.3892 426.146 21.2727 425.697 21.2727C425.248 21.2727 424.879 21.3892 424.589 21.6222C424.299 21.8551 424.085 22.1605 423.945 22.5384C423.806 22.9162 423.737 23.3239 423.737 23.7614C423.737 24.1989 423.806 24.6051 423.945 24.9801C424.085 25.3551 424.299 25.6577 424.589 25.8878C424.879 26.1179 425.248 26.233 425.697 26.233ZM432.857 27.1364C432.266 27.1364 431.748 26.9957 431.301 26.7145C430.858 26.4332 430.512 26.0398 430.262 25.5341C430.015 25.0284 429.891 24.4375 429.891 23.7614C429.891 23.0795 430.015 22.4844 430.262 21.9759C430.512 21.4673 430.858 21.0724 431.301 20.7912C431.748 20.5099 432.266 20.3693 432.857 20.3693C433.448 20.3693 433.965 20.5099 434.408 20.7912C434.854 21.0724 435.201 21.4673 435.448 21.9759C435.698 22.4844 435.823 23.0795 435.823 23.7614C435.823 24.4375 435.698 25.0284 435.448 25.5341C435.201 26.0398 434.854 26.4332 434.408 26.7145C433.965 26.9957 433.448 27.1364 432.857 27.1364ZM432.857 26.233C433.306 26.233 433.675 26.1179 433.965 25.8878C434.255 25.6577 434.469 25.3551 434.608 24.9801C434.748 24.6051 434.817 24.1989 434.817 23.7614C434.817 23.3239 434.748 22.9162 434.608 22.5384C434.469 22.1605 434.255 21.8551 433.965 21.6222C433.675 21.3892 433.306 21.2727 432.857 21.2727C432.408 21.2727 432.039 21.3892 431.749 21.6222C431.459 21.8551 431.245 22.1605 431.105 22.5384C430.966 22.9162 430.897 23.3239 430.897 23.7614C430.897 24.1989 430.966 24.6051 431.105 24.9801C431.245 25.3551 431.459 25.6577 431.749 25.8878C432.039 26.1179 432.408 26.233 432.857 26.233ZM438.364 23.0625V27H437.358V20.4545H438.33V21.4773H438.415C438.568 21.1449 438.801 20.8778 439.114 20.6761C439.426 20.4716 439.83 20.3693 440.324 20.3693C440.767 20.3693 441.155 20.4602 441.487 20.642C441.82 20.821 442.078 21.0938 442.263 21.4602C442.447 21.8239 442.54 22.2841 442.54 22.8409V27H441.534V22.9091C441.534 22.3949 441.401 21.9943 441.134 21.7074C440.866 21.4176 440.5 21.2727 440.034 21.2727C439.713 21.2727 439.426 21.3423 439.173 21.4815C438.923 21.6207 438.726 21.8239 438.581 22.0909C438.436 22.358 438.364 22.6818 438.364 23.0625Z" fill="white"/>
<g id="moon-icon">
<path id="Vector" d="M157 60.125C164.249 60.125 170.125 54.2487 170.125 47C170.125 39.7513 164.249 33.875 157 33.875C149.751 33.875 143.875 39.7513 143.875 47C143.875 54.2487 149.751 60.125 157 60.125Z" fill="url(#paint0_radial_0_3)"/>
<path id="Vector_2" d="M157 60.125C164.249 60.125 170.125 54.2487 170.125 47C170.125 39.7513 164.249 33.875 157 33.875C149.751 33.875 143.875 39.7513 143.875 47C143.875 54.2487 149.751 60.125 157 60.125Z" fill="url(#paint1_radial_0_3)"/>
<path id="Vector_3" d="M161.701 46.0834C162.036 46.3569 162.615 46.3875 163.105 46.1797C163.687 45.9303 163.952 45.5453 163.961 44.9438C163.969 44.1978 163.348 43.4016 162.119 43.3228C160.093 43.1938 159.314 45.0094 159.292 45.0772C159.244 45.2194 159.314 45.4228 159.719 45.1034C160.951 44.13 161.392 44.2919 161.392 44.2919C161.392 44.2919 160.684 45.2478 161.701 46.0834V46.0834ZM152.463 46.0834C152.798 46.3569 153.377 46.3875 153.867 46.1797C154.449 45.9303 154.714 45.5453 154.723 44.9438C154.732 44.1978 154.11 43.4016 152.881 43.3228C150.855 43.1938 150.077 45.0094 150.055 45.0772C150.007 45.2194 150.077 45.4228 150.481 45.1034C151.713 44.13 152.155 44.2919 152.155 44.2919C152.155 44.2919 151.446 45.2478 152.463 46.0834V46.0834ZM160.509 50.0494L160.482 50.0341C160.351 49.9553 160.178 49.9706 160.062 50.0691C159.719 50.3622 158.295 50.9047 156.998 50.9309C155.701 50.9047 154.277 50.3622 153.933 50.0691C153.817 49.9706 153.647 49.9531 153.513 50.0341L153.487 50.0494C153.321 50.15 153.29 50.3556 153.406 50.5044C153.857 51.0688 155.051 51.9175 156.996 51.9459C158.94 51.9197 160.132 51.0688 160.585 50.5044C160.708 50.3556 160.675 50.15 160.509 50.0494Z" fill="#212121"/>
<path id="Vector_4" d="M156.519 53.3962C156.361 53.4422 156.175 53.5603 156.215 53.72C156.228 53.7725 156.263 53.8141 156.302 53.8512C156.427 53.965 156.589 54.0306 156.751 54.0722C157.208 54.1881 157.704 54.1094 158.118 53.8862C158.356 53.7572 159.117 53.1884 158.949 52.8297C158.813 52.5387 158.291 52.9434 158.087 53.0287C157.582 53.2409 157.044 53.2453 156.519 53.3962V53.3962ZM155.836 48.8069C155.521 48.4525 155.812 48.2687 156.158 48.3737C156.595 48.5072 157.295 48.4437 157.475 48.05C157.82 47.2931 157.389 46.8666 156.853 45.5584C156.293 44.1912 156.996 42.7016 157.805 42.625C158.455 42.5637 158.238 42.9028 158.035 43.0472C157.637 43.3316 157.219 44.2722 157.86 45.3266C158.951 47.1181 159.041 47.9778 158.389 48.8222C157.984 49.3472 156.722 49.8044 155.836 48.8069V48.8069Z" fill="#274C5E"/>
<path id="Vector_5" opacity="0.3" d="M161.062 48.9513C161.401 49.7716 162.731 49.9991 164.033 49.4588C165.334 48.9206 166.115 47.8181 165.776 47C165.437 46.1797 164.107 45.9522 162.806 46.4925C161.504 47.0306 160.723 48.1309 161.062 48.9513V48.9513Z" fill="url(#paint2_radial_0_3)"/>
<path id="Vector_6" opacity="0.3" d="M153.813 48.9513C153.474 49.7716 152.144 49.9991 150.842 49.4588C149.541 48.9206 148.76 47.8181 149.099 47C149.438 46.1797 150.768 45.9522 152.069 46.4925C153.371 47.0306 154.152 48.1309 153.813 48.9513V48.9513Z" fill="url(#paint3_radial_0_3)"/>
</g>
</g>
<defs>
<filter id="filter0_b_0_3" x="72" y="43" width="171" height="81" filterUnits="userSpaceOnUse" color-interpolation-filters="sRGB">
<feFlood flood-opacity="0" result="BackgroundImageFix"/>
<feGaussianBlur in="BackgroundImage" stdDeviation="2"/>
<feComposite in2="SourceAlpha" operator="in" result="effect1_backgroundBlur_0_3"/>
<feBlend mode="normal" in="SourceGraphic" in2="effect1_backgroundBlur_0_3" result="shape"/>
</filter>
<radialGradient id="paint0_radial_0_3" cx="0" cy="0" r="1" gradientUnits="userSpaceOnUse" gradientTransform="translate(156.902 45.2662) scale(15.022)">
<stop offset="0.306" stop-color="#6092AB"/>
<stop offset="0.472" stop-color="#5989A1"/>
<stop offset="0.749" stop-color="#457287"/>
<stop offset="0.843" stop-color="#3D687D"/>
</radialGradient>
<radialGradient id="paint1_radial_0_3" cx="0" cy="0" r="1" gradientUnits="userSpaceOnUse" gradientTransform="translate(156.935 43.9714) scale(18.7259)">
<stop offset="0.762" stop-color="#B2EBF2" stop-opacity="0"/>
<stop offset="1" stop-color="#E0F7FA"/>
</radialGradient>
<radialGradient id="paint2_radial_0_3" cx="0" cy="0" r="1" gradientUnits="userSpaceOnUse" gradientTransform="translate(163.102 46.746) rotate(-23.0654) scale(3.5811 2.86216)">
<stop stop-color="white"/>
<stop offset="1" stop-color="#FFF9B9" stop-opacity="0"/>
</radialGradient>
<radialGradient id="paint3_radial_0_3" cx="0" cy="0" r="1" gradientUnits="userSpaceOnUse" gradientTransform="translate(151.872 46.822) rotate(-156.935) scale(3.52969 2.82108)">
<stop stop-color="white"/>
<stop offset="1" stop-color="#FFF9B9" stop-opacity="0"/>
</radialGradient>
<clipPath id="clip0_0_3">
<rect width="450.001" height="124.001" fill="white"/>
</clipPath>
</defs>
</svg>
