<svg width="425" height="141" viewBox="0 0 425 141" fill="none" xmlns="http://www.w3.org/2000/svg">
<g clip-path="url(#clip0_0_3)">
<path d="M0.00123969 135.5L400.002 135.45" stroke="white"/>
<path d="M46.5014 135.5C46.5024 135.325 46.5039 135.15 46.5059 134.976L46.006 134.97C46.0139 134.283 46.0298 133.596 46.0536 132.91L46.5533 132.927C46.577 132.245 46.6086 131.562 46.6481 130.881L46.149 130.852C46.1887 130.166 46.2363 129.481 46.2918 128.796L46.7902 128.837C46.8454 128.156 46.9085 127.476 46.9794 126.797L46.4821 126.745C46.5534 126.062 46.6325 125.379 46.7196 124.698L47.2155 124.761C47.302 124.084 47.3964 123.408 47.4984 122.732L47.0041 122.657C47.1067 121.978 47.2171 121.301 47.3353 120.624L47.8278 120.71C47.9453 120.037 48.0705 119.366 48.2034 118.696L47.7129 118.598C47.8464 117.925 47.9877 117.253 48.1366 116.582L48.6247 116.69C48.7727 116.024 48.9283 115.359 49.0915 114.695L48.606 114.576C48.7699 113.909 48.9415 113.244 49.1206 112.581L49.6033 112.711C49.7812 112.052 49.9667 111.395 50.1597 110.739L49.6801 110.598C49.8738 109.939 50.075 109.283 50.2838 108.628L50.7602 108.78C50.9674 108.129 51.182 107.481 51.4041 106.834L50.9313 106.672C51.1541 106.023 51.3843 105.376 51.622 104.73L52.0912 104.903C52.327 104.263 52.5701 103.625 52.8205 102.988L52.3552 102.805C52.6064 102.167 52.8649 101.53 53.1307 100.896L53.5918 101.089C53.8554 100.46 54.1262 99.8328 54.4042 99.2076L53.9473 99.0044C54.2259 98.3778 54.5118 97.7533 54.8048 97.1309L55.2571 97.3438C55.4026 97.0349 55.5497 96.7265 55.6987 96.4187C55.8402 96.1264 55.9831 95.8347 56.1276 95.5437L55.6798 95.3213C55.9701 94.7368 56.2664 94.1547 56.5689 93.5753L57.0121 93.8066C57.3126 93.2311 57.619 92.6581 57.9315 92.0877L57.493 91.8475C57.8065 91.2752 58.126 90.7055 58.4514 90.1385L58.8851 90.3874C59.2083 89.8244 59.5373 89.264 59.8722 88.7064L59.4436 88.449C59.7796 87.8896 60.1214 87.333 60.469 86.7792L60.8925 87.045C61.2376 86.4952 61.5884 85.9482 61.9449 85.404L61.5267 85.13C61.8843 84.5842 62.2475 84.0413 62.6164 83.5014L63.0292 83.7834C63.3954 83.2474 63.7671 82.7144 64.1444 82.1842L63.7371 81.8943C64.1154 81.3628 64.4992 80.8342 64.8885 80.3086L65.2903 80.6063C65.6766 80.0847 66.0684 79.5661 66.4656 79.0506L66.0695 78.7455C66.4676 78.2287 66.8711 77.715 67.28 77.2044L67.6703 77.5169C68.0759 77.0103 68.4869 76.5067 68.9031 76.0063L68.5186 75.6865C68.9357 75.1851 69.358 74.6867 69.7855 74.1916L70.164 74.5183C70.5881 74.027 71.0174 73.5388 71.4518 73.0539L71.0793 72.7203C71.5145 72.2345 71.9547 71.752 72.3999 71.2727L72.7662 71.613C73.208 71.1374 73.6548 70.6651 74.1065 70.196L73.7463 69.8492C74.1986 69.3795 74.6559 68.9131 75.1179 68.4501L75.4719 68.8033C75.9305 68.3438 76.3939 67.8876 76.8621 67.4347L76.5145 67.0753C76.9831 66.6221 77.4565 66.1722 77.9346 65.7257L78.2758 66.0912C78.7503 65.6481 79.2295 65.2084 79.7133 64.7721L79.3784 64.4008C79.8626 63.9642 80.3514 63.5311 80.8447 63.1014L81.1731 63.4784C81.4181 63.265 81.6643 63.0524 81.9117 62.8407C82.1731 62.6169 82.4358 62.3942 82.6996 62.1725L82.3779 61.7897C82.907 61.345 83.4407 60.9046 83.9788 60.4687L84.2936 60.8571C84.8283 60.4239 85.3674 59.995 85.9109 59.5705L85.6032 59.1765C86.1479 58.751 86.6969 58.33 87.2502 57.9133L87.551 58.3128C88.1008 57.8988 88.6548 57.4892 89.2129 57.0841L88.9192 56.6795C89.4785 56.2735 90.042 55.8719 90.6096 55.4748L90.8962 55.8845C91.4601 55.49 92.0281 55.0999 92.6 54.7144L92.3205 54.2998C92.8936 53.9134 93.4706 53.5315 94.0515 53.1542L94.3239 53.5735C94.901 53.1986 95.482 52.8282 96.0668 52.4623L95.8016 52.0385C96.3875 51.6719 96.9772 51.3098 97.5706 50.9523L97.8286 51.3806C98.4181 51.0255 99.0113 50.6749 99.608 50.3288L99.3572 49.8963C99.9551 49.5496 100.557 49.2075 101.162 48.87L101.405 49.3066C102.006 48.9714 102.611 48.6406 103.219 48.3145L102.982 47.8739C103.591 47.5472 104.204 47.2252 104.82 46.9078L105.049 47.3522C105.66 47.0368 106.276 46.7261 106.894 46.4199L106.672 45.9718C107.291 45.6653 107.914 45.3633 108.54 45.0661L108.754 45.5177C109.376 45.2223 110.001 44.9316 110.629 44.6455L110.422 44.1905C111.051 43.9041 111.682 43.6223 112.317 43.3453L112.517 43.8035C113.148 43.5282 113.782 43.2575 114.419 42.9915L114.227 42.5302C114.864 42.2639 115.505 42.0024 116.148 41.7456L116.333 42.21C116.973 41.9547 117.615 41.7042 118.26 41.4584L118.082 40.9912C118.727 40.7451 119.376 40.5038 120.027 40.2672L120.198 40.7372C120.521 40.6195 120.846 40.5031 121.171 40.3878C121.48 40.2782 121.789 40.1698 122.099 40.0625L121.936 39.5901C122.557 39.3747 123.181 39.1639 123.806 38.9576L123.963 39.4325C124.586 39.2271 125.21 39.0262 125.836 38.8298L125.686 38.3528C126.314 38.1558 126.943 37.9633 127.575 37.7754L127.717 38.2546C128.346 38.0675 128.975 37.8848 129.607 37.7067L129.471 37.2255C130.104 37.0468 130.739 36.8727 131.375 36.7031L131.504 37.1863C132.138 37.0174 132.773 36.8531 133.409 36.6932L133.287 36.2083C133.925 36.048 134.565 35.8922 135.206 35.7409L135.321 36.2276C135.959 36.077 136.598 35.9309 137.239 35.7894L137.131 35.3011C137.773 35.1592 138.417 35.0217 139.062 34.8888L139.163 35.3785C139.805 35.2462 140.448 35.1184 141.093 34.9951L140.999 34.504C141.645 34.3804 142.293 34.2613 142.941 34.1467L143.028 34.6391C143.674 34.5251 144.32 34.4155 144.968 34.3105L144.888 33.8169C145.537 33.7116 146.188 33.6109 146.839 33.5146L146.913 34.0093C147.561 33.9135 148.211 33.8222 148.861 33.7355L148.795 33.2398C149.447 33.1529 150.1 33.0704 150.754 32.9925L150.813 33.489C151.464 33.4115 152.116 33.3385 152.769 33.27L152.717 32.7727C153.371 32.7041 154.026 32.6399 154.682 32.5804L154.727 33.0783C155.38 33.019 156.034 32.9643 156.688 32.9141L156.65 32.4155C157.306 32.3652 157.962 32.3194 158.62 32.2782L158.651 32.7772C159.305 32.7361 159.96 32.6996 160.615 32.6677L160.591 32.1683C161.248 32.1362 161.906 32.1088 162.564 32.0859L162.581 32.5855C163.237 32.5627 163.892 32.5445 164.549 32.5308L164.538 32.0309C165.196 32.0172 165.854 32.008 166.513 32.0034L166.516 32.5034C166.844 32.5011 167.172 32.5 167.5 32.5C167.828 32.5 168.156 32.5011 168.484 32.5034L168.487 32.0034C169.146 32.008 169.804 32.0172 170.462 32.0309L170.451 32.5308C171.107 32.5445 171.763 32.5627 172.418 32.5855L172.436 32.0858C173.094 32.1088 173.752 32.1362 174.409 32.1683L174.385 32.6677C175.04 32.6996 175.695 32.7361 176.349 32.7772L176.38 32.2782C177.038 32.3194 177.694 32.3652 178.35 32.4155L178.312 32.9141C178.966 32.9643 179.62 33.019 180.273 33.0783L180.318 32.5804C180.974 32.6399 181.629 32.7041 182.283 32.7727L182.231 33.27C182.884 33.3385 183.536 33.4115 184.187 33.489L184.246 32.9925C184.9 33.0704 185.553 33.1529 186.205 33.2398L186.139 33.7355C186.789 33.8222 187.439 33.9135 188.087 34.0093L188.161 33.5146C188.812 33.6109 189.462 33.7116 190.112 33.8169L190.032 34.3105C190.68 34.4155 191.326 34.525 191.972 34.6391L192.059 34.1467C192.707 34.2613 193.355 34.3804 194.001 34.504L193.907 34.9951C194.552 35.1184 195.195 35.2462 195.837 35.3785L195.938 34.8888C196.583 35.0217 197.227 35.1592 197.869 35.3011L197.761 35.7894C198.402 35.9309 199.041 36.077 199.679 36.2276L199.794 35.7409C200.435 35.8922 201.075 36.048 201.713 36.2083L201.591 36.6932C202.227 36.8531 202.862 37.0174 203.496 37.1863L203.624 36.7031C204.261 36.8727 204.896 37.0468 205.529 37.2255L205.393 37.7067C206.025 37.8848 206.654 38.0674 207.283 38.2546L207.425 37.7754C208.057 37.9633 208.686 38.1558 209.314 38.3528L209.164 38.8298C209.79 39.0262 210.414 39.2271 211.037 39.4324L211.194 38.9576C211.819 39.1639 212.443 39.3747 213.064 39.59L212.901 40.0625C213.211 40.1698 213.52 40.2782 213.829 40.3878C214.154 40.5031 214.479 40.6195 214.802 40.7372L214.973 40.2672C215.624 40.5038 216.273 40.7451 216.918 40.9912L216.74 41.4584C217.385 41.7042 218.027 41.9547 218.667 42.21L218.852 41.7456C219.495 42.0024 220.136 42.2639 220.773 42.5302L220.581 42.9915C221.218 43.2575 221.852 43.5282 222.483 43.8035L222.683 43.3453C223.318 43.6223 223.949 43.9041 224.578 44.1905L224.371 44.6455C224.999 44.9316 225.624 45.2223 226.246 45.5177L226.46 45.0661C227.086 45.3633 227.709 45.6653 228.328 45.9718L228.106 46.4199C228.724 46.7261 229.339 47.0368 229.951 47.3522L230.18 46.9078C230.796 47.2252 231.409 47.5472 232.018 47.8739L231.781 48.3145C232.389 48.6406 232.994 48.9714 233.595 49.3066L233.838 48.87C234.443 49.2075 235.045 49.5496 235.643 49.8963L235.392 50.3288C235.989 50.6749 236.582 51.0255 237.171 51.3806L237.429 50.9523C238.023 51.3098 238.612 51.6719 239.198 52.0385L238.933 52.4623C239.518 52.8282 240.099 53.1986 240.676 53.5735L240.948 53.1542C241.529 53.5315 242.106 53.9134 242.679 54.2998L242.4 54.7143C242.972 55.0999 243.54 55.49 244.104 55.8845L244.39 55.4748C244.958 55.8719 245.521 56.2734 246.081 56.6794L245.787 57.0841C246.345 57.4892 246.899 57.8988 247.449 58.3128L247.75 57.9133C248.303 58.33 248.852 58.751 249.397 59.1765L249.089 59.5705C249.633 59.995 250.172 60.4239 250.706 60.8571L251.021 60.4686C251.559 60.9046 252.093 61.345 252.622 61.7897L252.3 62.1725C252.564 62.3941 252.827 62.6169 253.088 62.8407C253.336 63.0524 253.582 63.265 253.827 63.4784L254.155 63.1014C254.649 63.5311 255.137 63.9642 255.622 64.4008L255.287 64.7721C255.771 65.2084 256.25 65.6481 256.724 66.0912L257.065 65.7257C257.544 66.1722 258.017 66.6221 258.486 67.0753L258.138 67.4347C258.606 67.8875 259.07 68.3438 259.528 68.8033L259.882 68.4501C260.344 68.9131 260.801 69.3795 261.254 69.8492L260.893 70.196C261.345 70.6651 261.792 71.1374 262.234 71.613L262.6 71.2727C263.045 71.752 263.486 72.2345 263.921 72.7203L263.548 73.0539C263.983 73.5388 264.412 74.027 264.836 74.5183L265.215 74.1916C265.642 74.6867 266.064 75.1851 266.481 75.6865L266.097 76.0063C266.513 76.5067 266.924 77.0103 267.33 77.5169L267.72 77.2044C268.129 77.715 268.532 78.2287 268.931 78.7455L268.534 79.0506C268.932 79.5661 269.323 80.0847 269.71 80.6063L270.111 80.3086C270.501 80.8342 270.885 81.3628 271.263 81.8943L270.856 82.1842C271.233 82.7144 271.605 83.2474 271.971 83.7834L272.384 83.5014C272.752 84.0413 273.116 84.5842 273.473 85.1299L273.055 85.404C273.412 85.9482 273.762 86.4952 274.108 87.045L274.531 86.7792C274.879 87.333 275.22 87.8896 275.556 88.449L275.128 88.7064C275.463 89.264 275.792 89.8244 276.115 90.3874L276.549 90.1385C276.874 90.7055 277.194 91.2752 277.507 91.8475L277.069 92.0877C277.381 92.6581 277.687 93.2311 277.988 93.8066L278.431 93.5753C278.734 94.1547 279.03 94.7368 279.32 95.3213L278.872 95.5437C279.017 95.8347 279.16 96.1264 279.301 96.4187C279.45 96.7265 279.597 97.0349 279.743 97.3438L280.195 97.1309C280.488 97.7533 280.774 98.3778 281.053 99.0044L280.596 99.2076C280.874 99.8327 281.145 100.46 281.408 101.089L281.869 100.896C282.135 101.53 282.394 102.167 282.645 102.805L282.179 102.988C282.43 103.625 282.673 104.263 282.909 104.903L283.378 104.73C283.616 105.376 283.846 106.023 284.069 106.672L283.596 106.834C283.818 107.481 284.033 108.129 284.24 108.779L284.716 108.628C284.925 109.283 285.126 109.939 285.32 110.598L284.84 110.739C285.033 111.395 285.219 112.052 285.397 112.711L285.879 112.581C286.059 113.244 286.23 113.909 286.394 114.576L285.908 114.695C286.072 115.359 286.227 116.024 286.375 116.69L286.863 116.582C287.012 117.253 287.154 117.925 287.287 118.598L286.797 118.696C286.93 119.366 287.055 120.037 287.172 120.71L287.665 120.624C287.783 121.301 287.893 121.978 287.996 122.657L287.502 122.732C287.604 123.408 287.698 124.084 287.784 124.761L288.28 124.698C288.367 125.379 288.447 126.062 288.518 126.745L288.021 126.797C288.092 127.476 288.155 128.156 288.21 128.837L288.708 128.796C288.764 129.481 288.811 130.166 288.851 130.852L288.352 130.881C288.391 131.562 288.423 132.245 288.447 132.927L288.946 132.91C288.97 133.596 288.986 134.283 288.994 134.97L288.494 134.976C288.496 135.15 288.498 135.325 288.499 135.5H288.013V136H286.039V135.5H284.066V136H282.092V135.5H280.118V136H278.144V135.5H276.17V136H274.197V135.5H272.223V136H270.249V135.5H268.275V136H266.301V135.5H264.328V136H262.354V135.5H260.38V136H258.406V135.5H256.432V136H254.459V135.5H252.485V136H250.511V135.5H248.537V136H246.564V135.5H244.59V136H242.616V135.5H240.642V136H238.668V135.5H236.695V136H234.721V135.5H232.747V136H230.773V135.5H228.799V136H226.826V135.5H224.852V136H222.878V135.5H220.904V136H218.93V135.5H216.957V136H214.983V135.5H213.996H213.027V136H211.09V135.5H209.153V136H207.215V135.5H205.278V136H203.341V135.5H201.403V136H199.466V135.5H197.529V136H195.591V135.5H193.654V136H191.717V135.5H189.779V136H187.842V135.5H185.905V136H183.967V135.5H182.03V136H180.093V135.5H178.155V136H176.218V135.5H174.281V136H172.343V135.5H170.406V136H168.469V135.5H167.5H166.487V136H164.462V135.5H162.437V136H160.412V135.5H158.387V136H156.362V135.5H154.337V136H152.312V135.5H150.287V136H148.262V135.5H146.237V136H144.212V135.5H142.188V136H140.162V135.5H138.137V136H136.112V135.5H134.087V136H132.062V135.5H130.037V136H128.012V135.5H125.987V136H123.962V135.5H121.937V136H119.912V135.5H117.887V136H115.862V135.5H113.837V136H111.812V135.5H109.787V136H107.762V135.5L105.737 135.5V136H103.712V135.5H101.687V136H99.6625V135.5H97.6375V136H95.6125V135.5H93.5875V136H91.5625V135.5H89.5375V136H87.5125V135.5H85.4875V136H83.4625V135.5H81.4375V136H79.4125V135.5H77.3875V136H75.3625V135.5H73.3375V136H71.3125V135.5H69.2875V136H67.2624V135.5H65.2375V136H63.2124V135.5H61.1874V136H59.1624V135.5H57.1374V136H55.1124V135.5H53.0874V136H51.0624V135.5H49.0374V136H47.0124V135.5H46.5014Z" stroke="white" stroke-dasharray="2 2"/>
<circle r="6" transform="matrix(-1 0.000103026 0.000103026 1 47.0006 134.001)" fill="#FFD233"/>
<circle r="6" transform="matrix(-1 0.000103026 0.000103026 1 295.001 134.001)" fill="#FFD233"/>
<path d="M166.5 38.4375C164.66 38.4375 162.895 37.7066 161.594 36.4056C160.293 35.1045 159.563 33.3399 159.563 31.5C159.563 29.6601 160.293 27.8955 161.594 26.5944C162.895 25.2934 164.66 24.5625 166.5 24.5625C168.34 24.5625 170.105 25.2934 171.406 26.5944C172.707 27.8955 173.438 29.6601 173.438 31.5C173.438 33.3399 172.707 35.1045 171.406 36.4056C170.105 37.7066 168.34 38.4375 166.5 38.4375ZM166.5 40.75C168.953 40.75 171.306 39.7755 173.041 38.0407C174.775 36.306 175.75 33.9533 175.75 31.5C175.75 29.0467 174.775 26.694 173.041 24.9593C171.306 23.2246 168.953 22.25 166.5 22.25C164.047 22.25 161.694 23.2246 159.959 24.9593C158.225 26.694 157.25 29.0467 157.25 31.5C157.25 33.9533 158.225 36.306 159.959 38.0407C161.694 39.7755 164.047 40.75 166.5 40.75V40.75ZM166.5 13C166.807 13 167.101 13.1218 167.318 13.3387C167.534 13.5555 167.656 13.8496 167.656 14.1563V18.7813C167.656 19.0879 167.534 19.382 167.318 19.5988C167.101 19.8157 166.807 19.9375 166.5 19.9375C166.193 19.9375 165.899 19.8157 165.682 19.5988C165.466 19.382 165.344 19.0879 165.344 18.7813V14.1563C165.344 13.8496 165.466 13.5555 165.682 13.3387C165.899 13.1218 166.193 13 166.5 13V13ZM166.5 43.0625C166.807 43.0625 167.101 43.1843 167.318 43.4012C167.534 43.618 167.656 43.9121 167.656 44.2188V48.8438C167.656 49.1504 167.534 49.4445 167.318 49.6613C167.101 49.8782 166.807 50 166.5 50C166.193 50 165.899 49.8782 165.682 49.6613C165.466 49.4445 165.344 49.1504 165.344 48.8438V44.2188C165.344 43.9121 165.466 43.618 165.682 43.4012C165.899 43.1843 166.193 43.0625 166.5 43.0625V43.0625ZM185 31.5C185 31.8067 184.878 32.1008 184.661 32.3176C184.445 32.5344 184.15 32.6563 183.844 32.6563H179.219C178.912 32.6563 178.618 32.5344 178.401 32.3176C178.184 32.1008 178.063 31.8067 178.063 31.5C178.063 31.1933 178.184 30.8992 178.401 30.6824C178.618 30.4656 178.912 30.3438 179.219 30.3438H183.844C184.15 30.3438 184.445 30.4656 184.661 30.6824C184.878 30.8992 185 31.1933 185 31.5ZM154.938 31.5C154.938 31.8067 154.816 32.1008 154.599 32.3176C154.382 32.5344 154.088 32.6563 153.781 32.6563H149.156C148.85 32.6563 148.555 32.5344 148.339 32.3176C148.122 32.1008 148 31.8067 148 31.5C148 31.1933 148.122 30.8992 148.339 30.6824C148.555 30.4656 148.85 30.3438 149.156 30.3438H153.781C154.088 30.3438 154.382 30.4656 154.599 30.6824C154.816 30.8992 154.938 31.1933 154.938 31.5ZM179.582 18.4182C179.799 18.635 179.92 18.9291 179.92 19.2357C179.92 19.5423 179.799 19.8363 179.582 20.0531L176.312 23.3253C176.204 23.4327 176.077 23.5178 175.936 23.5758C175.796 23.6339 175.646 23.6637 175.494 23.6636C175.187 23.6634 174.893 23.5413 174.676 23.3242C174.568 23.2167 174.483 23.0891 174.425 22.9487C174.367 22.8083 174.337 22.6578 174.338 22.5059C174.338 22.199 174.46 21.9049 174.677 21.6881L177.947 18.4182C178.164 18.2014 178.458 18.0797 178.764 18.0797C179.071 18.0797 179.365 18.2014 179.582 18.4182V18.4182ZM158.323 39.677C158.54 39.8938 158.662 40.1879 158.662 40.4945C158.662 40.8011 158.54 41.0951 158.323 41.3119L155.053 44.5818C154.835 44.7924 154.543 44.909 154.24 44.9063C153.937 44.9037 153.647 44.7821 153.432 44.5677C153.218 44.3534 153.096 44.0633 153.094 43.7602C153.091 43.457 153.208 43.1649 153.418 42.9469L156.688 39.677C156.905 39.4602 157.199 39.3385 157.506 39.3385C157.812 39.3385 158.106 39.4602 158.323 39.677V39.677ZM179.582 44.5818C179.365 44.7986 179.071 44.9203 178.764 44.9203C178.458 44.9203 178.164 44.7986 177.947 44.5818L174.677 41.3119C174.466 41.0939 174.35 40.8018 174.352 40.4986C174.355 40.1955 174.477 39.9055 174.691 39.6911C174.905 39.4767 175.195 39.3551 175.499 39.3525C175.802 39.3498 176.094 39.4664 176.312 39.677L179.582 42.9469C179.799 43.1637 179.92 43.4577 179.92 43.7643C179.92 44.0709 179.799 44.365 179.582 44.5818ZM158.323 23.3253C158.106 23.5421 157.812 23.6638 157.506 23.6638C157.199 23.6638 156.905 23.5421 156.688 23.3253L153.418 20.0531C153.308 19.9465 153.22 19.8189 153.159 19.6778C153.098 19.5367 153.067 19.385 153.065 19.2315C153.064 19.078 153.093 18.9257 153.151 18.7836C153.209 18.6415 153.295 18.5124 153.404 18.4039C153.512 18.2953 153.642 18.2094 153.784 18.1513C153.926 18.0932 154.078 18.0639 154.231 18.0652C154.385 18.0666 154.537 18.0985 154.678 18.1591C154.819 18.2197 154.946 18.3078 155.053 18.4182L158.323 21.6881C158.431 21.7955 158.516 21.9231 158.574 22.0635C158.633 22.204 158.663 22.3546 158.663 22.5067C158.663 22.6588 158.633 22.8094 158.574 22.9498C158.516 23.0903 158.431 23.2179 158.323 23.3253V23.3253Z" fill="#FFD233"/>
</g>
<defs>
<clipPath id="clip0_0_3">
<rect width="425" height="140.001" fill="white"/>
</clipPath>
</defs>
</svg>
